<svg width="41" height="61" viewBox="0 0 41 61" fill="none" xmlns="http://www.w3.org/2000/svg">
<path d="M20.9111 4.26576C29.8232 4.26576 36.8256 11.5149 36.8256 20.7412C36.8256 30.2969 27.5952 44.4658 20.9111 53.3625C14.227 44.4658 4.99664 30.2969 4.99664 20.7412C4.99664 11.5149 11.999 4.26576 20.9111 4.26576ZM20.9111 0.0362549C8.49783 0.0362549 0.911133 7.89035 0.911133 20.7412C0.911133 37.8756 20.9111 60.0363 20.9111 60.0363C20.9111 60.0363 40.9111 37.8756 40.9111 20.7412C40.9111 7.89035 33.3244 0.0362549 20.9111 0.0362549Z" fill="#008E4D"/>
<path d="M26.9449 24.2772C26.5859 22.9761 25.81 21.8286 24.7361 21.0108C23.6623 20.1931 22.3498 19.7502 21 19.7502C19.6502 19.7502 18.3377 20.1931 17.2638 21.0108C16.1899 21.8286 15.414 22.9761 15.055 24.2772L14.1997 27.378C14.0461 27.9348 14.0232 28.5195 14.1327 29.0865C14.2423 29.6536 14.4813 30.1876 14.8312 30.6471C15.1811 31.1066 15.6324 31.4791 16.1499 31.7355C16.6674 31.9918 17.2371 32.1252 17.8146 32.1252H24.1853C24.7628 32.1252 25.3326 31.9918 25.8501 31.7355C26.3676 31.4791 26.8189 31.1066 27.1688 30.6471C27.5186 30.1876 27.7577 29.6536 27.8672 29.0865C27.9768 28.5195 27.9538 27.9348 27.8003 27.378L26.9449 24.2772ZM25.9754 29.7382C25.7664 30.0149 25.4958 30.2391 25.1851 30.3931C24.8744 30.547 24.5321 30.6265 24.1853 30.6252H17.8146C17.4681 30.6252 17.1263 30.5452 16.8157 30.3914C16.5052 30.2375 16.2345 30.0141 16.0245 29.7384C15.8146 29.4627 15.6712 29.1422 15.6054 28.802C15.5397 28.4618 15.5535 28.1109 15.6456 27.7769L16.501 24.6762C16.7726 23.6915 17.3598 22.8231 18.1725 22.2042C18.9852 21.5854 19.9785 21.2502 21 21.2502C22.0214 21.2502 23.0147 21.5854 23.8274 22.2042C24.6401 22.8231 25.2273 23.6915 25.4989 24.6762L26.3543 27.7769C26.4478 28.1108 26.4622 28.4619 26.3965 28.8024C26.3307 29.1428 26.1865 29.4633 25.9754 29.7384V29.7382ZM15.8484 20.796C15.9789 19.9804 15.8058 19.1073 15.3609 18.3368C14.916 17.5664 14.2462 16.9799 13.4748 16.6851C12.6487 16.3696 11.806 16.4199 11.1013 16.8266C9.70037 17.6354 9.3317 19.629 10.2797 21.2705C10.7244 22.041 11.3942 22.6276 12.1657 22.9222C12.5074 23.0554 12.8706 23.1248 13.2374 23.1271C13.6943 23.1288 14.1435 23.0093 14.5391 22.7808C15.2434 22.374 15.7084 21.6692 15.8484 20.796ZM14.3672 20.5589C14.3001 20.9775 14.0948 21.3052 13.789 21.4817C13.4833 21.6582 13.0968 21.6721 12.7007 21.5209C12.2501 21.3489 11.8516 20.9936 11.5785 20.5205C11.0535 19.6112 11.1783 18.5143 11.8513 18.1256C12.0205 18.0296 12.2121 17.9801 12.4067 17.9823C12.5891 17.9841 12.7697 18.0194 12.9395 18.0862C13.3901 18.2584 13.7887 18.6136 14.0618 19.0866C14.3349 19.5597 14.4433 20.0826 14.3672 20.5589ZM16.0109 17.6885C16.5435 18.1143 17.1517 18.336 17.7667 18.336C17.9509 18.3359 18.1346 18.3161 18.3146 18.2769C19.8954 17.9332 20.8539 16.1467 20.4512 14.2945C20.2623 13.4251 19.803 12.6624 19.158 12.1467C18.4673 11.5946 17.6492 11.3855 16.8542 11.5584C15.2735 11.902 14.3151 13.6885 14.7177 15.5408C14.9066 16.4102 15.3659 17.1729 16.0109 17.6885ZM17.1728 13.0242C17.2457 13.0085 17.3201 13.0006 17.3946 13.0008C17.6734 13.0008 17.9602 13.1098 18.2214 13.3186C18.5981 13.6198 18.8694 14.0796 18.9854 14.6134C19.2085 15.6397 18.7555 16.6462 17.996 16.8113C17.651 16.8863 17.2786 16.7819 16.9476 16.5172C16.5708 16.216 16.2995 15.7562 16.1835 15.2224C15.9603 14.1958 16.4134 13.1893 17.1728 13.0242ZM30.8986 16.8266C30.1942 16.4199 29.3511 16.3696 28.5251 16.6851C27.7537 16.9798 27.0839 17.5664 26.6391 18.3368C26.1943 19.1073 26.0212 19.9806 26.1516 20.796C26.2914 21.6692 26.7563 22.374 27.4609 22.7808C27.8566 23.0093 28.3057 23.1288 28.7627 23.1271C29.1294 23.1249 29.4926 23.0554 29.8344 22.9222C30.6058 22.6276 31.2756 22.041 31.7204 21.2705C32.6682 19.629 32.2996 17.6354 30.8986 16.8266ZM30.4214 20.5205C30.1483 20.9936 29.7498 21.3489 29.2992 21.5209C28.9033 21.6723 28.5167 21.6583 28.211 21.4817C27.9052 21.3051 27.7 20.9775 27.6329 20.5589C27.5567 20.0826 27.665 19.5598 27.9382 19.0871C28.2113 18.6143 28.6098 18.2588 29.0604 18.0866C29.2302 18.0197 29.4108 17.9844 29.5933 17.9825C29.7878 17.9804 29.9794 18.0298 30.1486 18.1258C30.8216 18.5142 30.9466 19.6109 30.4214 20.5205ZM23.6853 18.2769C23.8653 18.3161 24.049 18.3359 24.2332 18.336C24.8482 18.336 25.4567 18.1143 25.9891 17.6885C26.634 17.1729 27.0933 16.4102 27.2822 15.5408C27.6849 13.6886 26.7264 11.9021 25.1457 11.5585C24.3508 11.3857 23.5326 11.5946 22.8419 12.1468C22.1969 12.6624 21.7376 13.4252 21.5487 14.2945C21.1461 16.1467 22.1045 17.9332 23.6853 18.2769ZM23.0145 14.6131C23.1305 14.0794 23.4018 13.6194 23.7786 13.3184C24.0398 13.1096 24.3265 13.0005 24.6053 13.0005C24.6799 13.0004 24.7542 13.0082 24.8271 13.024C25.5865 13.1891 26.0396 14.1958 25.8165 15.2219C25.7004 15.7557 25.4291 16.2157 25.0525 16.5167C24.7215 16.7814 24.3493 16.8858 24.004 16.8109C23.2445 16.646 22.7914 15.6393 23.0145 14.6131Z" fill="#008E4D" stroke="#008E4D"/>
</svg>
